Coordinates
version=1
nRows=13
nColumns=63
inDegrees=yes

Units are S.I. units (second, meters, Newtons, ...)
If the header above contains a line with 'inDegrees', this indicates whether rotational values are in degrees (yes) or radians (no).

endheader
time	pelvis_tilt	pelvis_list	pelvis_rotation	pelvis_tx	pelvis_ty	pelvis_tz	hip_flexion_r	hip_adduction_r	hip_rotation_r	knee_angle_r	knee_angle_r_beta	ankle_angle_r	subtalar_angle_r	mtp_angle_r	hip_flexion_l	hip_adduction_l	hip_rotation_l	knee_angle_l	knee_angle_l_beta	ankle_angle_l	subtalar_angle_l	mtp_angle_l	L5_S1_Flex_Ext	L5_S1_Lat_Bending	L5_S1_axial_rotation	L4_L5_Flex_Ext	L4_L5_Lat_Bending	L4_L5_axial_rotation	L3_L4_Flex_Ext	L3_L4_Lat_Bending	L3_L4_axial_rotation	L2_L3_Flex_Ext	L2_L3_Lat_Bending	L2_L3_axial_rotation	L1_L2_Flex_Ext	L1_L2_Lat_Bending	L1_L2_axial_rotation	L1_T12_Flex_Ext	L1_T12_Lat_Bending	L1_T12_axial_rotation	Abs_r3	Abs_r2	Abs_r1	Abs_t1	Abs_t2	neck_flexion	neck_bending	neck_rotation	arm_flex_r	arm_add_r	arm_rot_r	elbow_flex_r	pro_sup_r	wrist_flex_r	wrist_dev_r	arm_flex_l	arm_add_l	arm_rot_l	elbow_flex_l	pro_sup_l	wrist_flex_l	wrist_dev_l
4.000000	-5.337563	-33.936300	83.735511	0.217802	0.178094	1.056237	68.180547	-0.644498	-4.789448	61.021130	1.065020	52.550506	-8.339442	0.000000	70.375602	-0.774190	9.464197	62.376732	1.088679	52.887809	4.301437	0.000000	-0.350084	0.334962	-1.635965	-0.650142	0.445499	-1.738212	-0.575154	0.814426	-1.738212	-0.400112	0.814426	-1.431469	-0.325088	0.683054	-1.329221	-0.200038	0.518856	-1.226973	-2.500618	3.789155	-9.098744	0.000000	0.000000	26.611156	-0.233814	-2.340307	7.149778	-14.227209	-0.153505	119.019834	80.672644	-4.922378	13.376591	1.679870	-20.619358	1.062003	98.618716	88.986096	-16.792384	-15.471587
4.025000	-4.881810	-34.712202	84.377050	0.216366	0.174696	1.057997	69.530594	-0.569446	-5.239654	61.722962	1.077269	52.787739	-8.309762	0.000000	71.863356	-0.574213	10.157177	63.132454	1.101869	53.219912	4.024885	0.000000	-0.333819	0.406104	-1.750422	-0.619935	0.540118	-1.859824	-0.548431	0.987401	-1.859824	-0.381521	0.987401	-1.531620	-0.309984	0.828127	-1.422218	-0.190744	0.629055	-1.312817	-2.384433	4.593926	-9.735325	0.000000	0.000000	27.183136	-0.411712	-1.868936	7.620720	-14.090831	0.324335	118.641209	79.725290	-5.451323	11.984290	1.827999	-20.159971	1.538876	97.775325	88.966397	-18.312673	-17.027869
4.050000	-4.498147	-35.013559	84.687202	0.216063	0.175396	1.057640	69.576414	-0.306691	-5.409298	61.088063	1.066188	52.551873	-8.313899	0.000000	72.015600	-0.564732	10.542736	62.695459	1.094242	53.241345	3.834152	0.000000	-0.309901	0.450481	-1.796714	-0.575517	0.599140	-1.909009	-0.509136	1.095300	-1.909009	-0.354186	1.095300	-1.572125	-0.287774	0.918622	-1.459831	-0.177077	0.697796	-1.347536	-2.213592	5.095935	-9.992787	0.000000	0.000000	27.620285	-0.677009	-1.633834	7.760563	-13.962773	0.677240	118.201044	78.887723	-5.982355	10.723387	1.826410	-19.876404	2.164662	96.868406	88.952152	-19.697607	-18.191028
4.075000	-4.245541	-34.808841	84.612606	0.216941	0.180135	1.055106	68.275110	0.085658	-5.103111	59.083693	1.031205	51.755767	-8.531981	0.000000	70.789234	-0.702441	10.731974	61.046152	1.065456	52.842458	3.485002	0.000000	-0.278896	0.460924	-1.770947	-0.517938	0.613029	-1.881631	-0.458199	1.120691	-1.881631	-0.318750	1.120691	-1.549578	-0.258983	0.939916	-1.438894	-0.159361	0.713971	-1.328210	-1.992128	5.214065	-9.849475	0.000000	0.000000	27.917423	-0.964376	-1.633460	7.523291	-13.842798	0.911422	117.753160	78.399480	-6.428513	9.643274	1.632274	-19.776751	2.802885	96.045751	88.949086	-20.593019	-18.595376
4.100000	-4.112729	-34.164924	84.214159	0.218755	0.188586	1.050523	65.749303	0.590637	-4.432474	55.815072	0.974157	50.382774	-8.893117	0.000000	68.321587	-1.008764	10.671414	58.279306	1.017166	52.011431	3.141296	0.000000	-0.237339	0.443398	-1.679452	-0.440763	0.589719	-1.784417	-0.389925	1.078077	-1.784417	-0.271255	1.078077	-1.469520	-0.220393	0.904176	-1.364554	-0.135616	0.686823	-1.259589	-1.695291	5.015802	-9.340606	0.000000	0.000000	28.122574	-1.351654	-1.928382	6.901638	-13.812271	1.010288	117.390263	78.415318	-6.733131	8.699480	1.282489	-19.862506	3.528476	95.353495	88.952563	-21.123324	-18.464611
4.125000	-4.105848	-33.107793	83.467366	0.221390	0.200250	1.044201	62.152710	1.172975	-3.342763	51.490652	0.898681	48.458172	-9.439066	0.000000	64.743394	-1.456955	10.455192	54.542869	0.951953	50.698154	2.618721	0.000000	-0.191961	0.400383	-1.533571	-0.356491	0.532509	-1.629419	-0.315373	0.973490	-1.629419	-0.219392	0.973490	-1.341874	-0.178255	0.816460	-1.246026	-0.109687	0.620193	-1.150178	-1.371159	4.529209	-8.529261	0.000000	0.000000	28.247571	-1.693583	-2.308604	6.089206	-13.899674	1.084230	117.107428	78.962592	-6.887784	7.925285	0.722909	-20.100500	4.134720	94.961704	88.964122	-21.038697	-17.479035
4.150000	-4.212610	-31.706700	82.449438	0.224590	0.214420	1.036467	57.693154	1.791636	-1.855793	46.350117	0.808962	46.050878	-10.215813	0.000000	60.257188	-2.014322	10.166719	50.007749	0.872800	48.936079	1.932791	0.000000	-0.145874	0.337154	-1.345789	-0.270903	0.448414	-1.429901	-0.239657	0.819755	-1.429901	-0.166720	0.819755	-1.177566	-0.135459	0.687524	-1.093454	-0.083353	0.522251	-1.009342	-1.041965	3.813949	-7.484876	0.000000	0.000000	28.311651	-2.051052	-2.809066	5.188949	-14.088448	1.112994	116.933976	79.852612	-6.898381	7.360270	0.025704	-20.485587	4.672919	94.860957	88.977898	-20.477443	-15.798272
4.175000	-4.319120	-30.072220	81.354958	0.227944	0.230351	1.027662	52.594722	2.333147	-0.310728	40.631747	0.709158	43.314597	-10.953560	0.000000	55.139552	-2.567526	9.923991	44.899902	0.783651	46.765409	1.115393	0.000000	-0.097806	0.273253	-1.162213	-0.181635	0.363426	-1.234851	-0.160685	0.664387	-1.234851	-0.111782	0.664387	-1.016936	-0.090822	0.557217	-0.944298	-0.055886	0.423269	-0.871660	-0.698617	3.091091	-6.463878	0.000000	0.000000	28.305310	-2.297970	-3.061793	4.375936	-14.383215	1.216791	116.821169	81.013411	-6.821978	6.992487	-0.844733	-20.881525	4.989137	95.060290	88.993753	-19.516225	-13.495085
4.200000	-4.483209	-28.258292	80.156772	0.231436	0.247279	1.018144	47.076678	2.781096	1.488275	34.600089	0.603885	40.281672	-11.897924	0.000000	49.570941	-3.078590	9.684120	39.388470	0.687458	44.254292	0.183586	0.000000	-0.049548	0.203876	-0.979155	-0.092016	0.271155	-1.040352	-0.081403	0.495705	-1.040352	-0.056629	0.495705	-0.856760	-0.046011	0.415744	-0.795563	-0.028312	0.315804	-0.734366	-0.353919	2.306289	-5.445765	0.000000	0.000000	28.274822	-2.394954	-3.033983	3.633574	-14.701964	1.377715	116.781656	82.361625	-6.710158	6.812923	-1.793885	-21.352120	5.150200	95.537682	89.003771	-18.291734	-10.746588
4.225000	-4.709334	-26.335590	78.896576	0.234973	0.264391	1.008287	41.355984	3.101817	3.381098	28.510014	0.497594	37.108493	-12.838642	0.000000	43.778976	-3.498321	9.369125	33.696699	0.588118	41.539203	-0.707785	0.000000	-0.002466	0.130309	-0.801749	-0.004580	0.173312	-0.851858	-0.004052	0.316834	-0.851858	-0.002819	0.316834	-0.701530	-0.002290	0.265727	-0.651421	-0.001409	0.201849	-0.601311	-0.017616	1.474087	-4.459085	0.000000	0.000000	28.249460	-2.316686	-2.699085	2.954833	-15.024302	1.609194	116.812561	83.781482	-6.578943	6.813351	-2.763722	-21.907763	5.157333	96.296353	89.009486	-16.801706	-7.632725
4.250000	-4.987829	-24.376438	77.633189	0.238457	0.280924	0.998476	35.640771	3.283037	5.284794	22.586228	0.394204	33.906969	-13.706280	0.000000	37.987400	-3.801263	9.023907	28.039059	0.489374	38.737902	-1.548025	0.000000	0.042881	0.054601	-0.630217	0.079635	0.072620	-0.669606	0.070449	0.132758	-0.669606	0.049009	0.132758	-0.551440	0.039819	0.111343	-0.512051	0.024502	0.084578	-0.472663	0.306296	0.617662	-3.505078	0.000000	0.000000	28.233188	-2.076110	-2.113568	2.319205	-15.344532	1.890792	116.922247	85.126923	-6.453596	6.977599	-3.674360	-22.565843	5.098088	97.291301	89.015212	-15.216278	-4.296017
4.275000	-5.325124	-22.393378	76.346639	0.241894	0.296337	0.989075	30.094976	3.335051	6.973516	17.058499	0.297727	30.835076	-14.146297	0.000000	32.332184	-4.004171	8.572872	22.607260	0.394571	35.970761	-2.258401	0.000000	0.079088	-0.024890	-0.451015	0.146874	-0.033103	-0.479203	0.129933	-0.060517	-0.479203	0.090389	-0.060517	-0.394638	0.073441	-0.050755	-0.366449	0.045191	-0.038554	-0.338261	0.564915	-0.281556	-2.508409	0.000000	0.000000	28.178776	-1.698969	-1.395284	1.715304	-15.607154	2.138044	117.084498	86.520460	-6.260053	7.267893	-4.426148	-23.307102	4.984044	98.456519	88.991051	-13.372757	-0.661674
4.300000	-5.696618	-20.493839	75.154003	0.245067	0.310068	0.980318	24.925947	3.247684	8.630320	12.090449	0.211018	27.946027	-14.514844	0.000000	27.032799	-4.056940	8.248879	17.578472	0.306802	33.250802	-3.144732	0.000000	0.114704	-0.102826	-0.294156	0.213016	-0.136758	-0.312541	0.188447	-0.250011	-0.312541	0.131095	-0.250011	-0.257387	0.106514	-0.209682	-0.239002	0.065542	-0.159277	-0.220617	0.819316	-1.163186	-1.636007	0.000000	0.000000	28.084159	-1.203866	-0.479732	1.151936	-15.880525	2.497498	117.253634	87.374499	-6.116835	7.464588	-5.082890	-24.064630	4.754602	99.751186	88.934715	-11.532484	2.984750
